<?xml version="1.0" standalone="no"?><!DOCTYPE svg PUBLIC "-//W3C//DTD SVG 1.1//EN" "http://www.w3.org/Graphics/SVG/1.1/DTD/svg11.dtd"><svg t="1757777787474" class="icon" viewBox="0 0 1024 1024" version="1.1" xmlns="http://www.w3.org/2000/svg" p-id="4161" xmlns:xlink="http://www.w3.org/1999/xlink" width="200" height="200"><path d="M512 963.490909c248.971636 0 451.490909-202.519273 451.490909-451.490909 0-248.971636-202.519273-451.490909-451.490909-451.490909-248.971636 0-451.490909 202.519273-451.490909 451.490909 0 248.971636 202.519273 451.490909 451.490909 451.490909m0 60.509091C229.236364 1024 0 794.763636 0 512S229.236364 0 512 0s512 229.236364 512 512-229.236364 512-512 512z" p-id="4162"></path><path d="M450.746182 749.242182a60.509091 60.509091 0 0 1 60.509091-60.509091 60.509091 60.509091 0 0 1 60.509091 60.509091 60.509091 60.509091 0 0 1-60.509091 60.509091 60.509091 60.509091 0 0 1-60.509091-60.509091z m57.204363-103.563637a48.546909 48.546909 0 0 1-28.951272-23.784727 48.733091 48.733091 0 0 1-5.538909-27.089454 148.945455 148.945455 0 0 1 62.510545-105.611637c25.274182-23.272727 47.057455-42.868364 47.476364-74.100363a61.300364 61.300364 0 0 0-61.393455-61.160728 63.069091 63.069091 0 0 0-62.929454 61.579637 43.426909 43.426909 0 0 1-36.724364 48.174545 43.566545 43.566545 0 0 1-11.636364 0.325818A48.593455 48.593455 0 0 1 363.380364 415.185455a159.185455 159.185455 0 0 1 158.999272-158.999273 146.059636 146.059636 0 0 1 106.496 37.236363 147.409455 147.409455 0 0 1 49.431273 102.074182 139.636364 139.636364 0 0 1-0.325818 20.666182 138.286545 138.286545 0 0 1-60.509091 106.821818c-25.088 22.295273-46.545455 41.472-46.266182 75.729455a41.890909 41.890909 0 0 1-25.972363 43.287273 49.245091 49.245091 0 0 1-22.900364 5.72509 49.152 49.152 0 0 1-14.522182-2.001454z" p-id="4163"></path></svg>